<?xml version="1.0"?>
<svg xmlns="http://www.w3.org/2000/svg" xmlns:lc="http://www.librecad.org" xmlns:xlink="http://www.w3.org/1999/xlink" width="14.005mm" height="93.133372mm" viewBox="0 0 14.005 93.133372">
    <g lc:layername="0" lc:is_locked="false" lc:is_construction="false" fill="none" stroke="black" stroke-width="1">
        <line x1="0.700045" y1="42.632572" x2="0.599447" y2="42.733072"/>
        <line x1="0.599447" y1="42.733072" x2="0.500228" y2="42.632572"/>
        <line x1="0.500228" y1="42.632572" x2="0.599447" y2="42.533072"/>
        <line x1="0.599447" y1="42.533072" x2="0.700045" y2="42.632572"/>
        <line x1="0.700045" y1="42.632572" x2="0.599447" y2="42.733072"/>
        <line x1="0.599447" y1="42.733072" x2="0.500228" y2="42.632572"/>
        <line x1="0.500228" y1="42.632572" x2="0.599447" y2="42.533072"/>
        <line x1="0.599447" y1="42.533072" x2="0.700045" y2="42.632572"/>
        <line x1="0.700045" y1="42.632572" x2="0.599447" y2="42.733072"/>
        <line x1="0.599447" y1="42.733072" x2="0.500228" y2="42.632572"/>
        <line x1="0.500228" y1="42.632572" x2="0.599447" y2="42.533072"/>
        <line x1="0.599447" y1="42.533072" x2="0.700045" y2="42.632572"/>
        <line x1="0.700045" y1="42.632572" x2="0.599447" y2="42.733072"/>
        <line x1="0.599447" y1="42.733072" x2="0.500228" y2="42.632572"/>
        <line x1="0.500228" y1="42.632572" x2="0.599447" y2="42.533072"/>
        <line x1="0.599447" y1="42.533072" x2="0.700045" y2="42.632572"/>
        <line x1="0.700045" y1="42.632572" x2="0.599447" y2="42.733072"/>
        <line x1="0.599447" y1="42.733072" x2="0.500228" y2="42.632572"/>
        <line x1="0.500228" y1="42.632572" x2="0.599447" y2="42.533072"/>
        <line x1="0.599447" y1="42.533072" x2="0.700045" y2="42.632572"/>
        <line x1="5.3012" y1="0" x2="5.3012" y2="2.2585"/>
        <line x1="5.3012" y1="2.2585" x2="5.5591" y2="5.1841"/>
        <line x1="5.5591" y1="5.1841" x2="6.2111" y2="8.1263"/>
        <line x1="6.2111" y1="8.1263" x2="7.0916" y2="11.0272"/>
        <line x1="7.0916" y1="11.0272" x2="8.0314" y2="13.83"/>
        <line x1="8.0314" y1="13.83" x2="9.8916" y2="19.2843"/>
        <line x1="9.8916" y1="19.2843" x2="11.7532" y2="25.1326"/>
        <line x1="11.7532" y1="25.1326" x2="13.1879" y2="31.0445"/>
        <line x1="13.1879" y1="31.0445" x2="13.7679" y2="36.6889"/>
        <line x1="13.7679" y1="36.6889" x2="13.7679" y2="43.7445"/>
        <line x1="13.7679" y1="43.7445" x2="13.6" y2="45.5235"/>
        <line x1="13.6" y1="45.5235" x2="13.2666" y2="46.9181"/>
        <line x1="13.2666" y1="46.9181" x2="12.9452" y2="48.066"/>
        <line x1="12.8143" y1="49.1078" x2="12.9742" y2="50.0712"/>
        <line x1="12.9742" y1="50.0712" x2="13.2994" y2="51.2301"/>
        <line x1="13.2994" y1="51.2301" x2="13.6204" y2="52.8077"/>
        <line x1="13.6204" y1="52.8077" x2="13.7679" y2="55.0334"/>
        <line x1="13.7679" y1="55.0334" x2="13.7679" y2="85.23308"/>
        <line x1="13.7679" y1="85.23308" x2="13.8783" y2="86.75306"/>
        <line x1="13.8783" y1="86.75306" x2="14.005" y2="88.24961"/>
        <line x1="14.005" y1="88.24961" x2="13.8907" y2="89.71858"/>
        <line x1="13.8907" y1="89.71858" x2="13.2828" y2="91.15313"/>
        <line x1="13.2828" y1="91.15313" x2="12.1846" y2="92.27486"/>
        <line x1="12.1846" y1="92.27486" x2="10.8617" y2="92.864654"/>
        <line x1="10.8617" y1="92.864654" x2="9.3885" y2="93.093409"/>
        <line x1="9.3885" y1="93.093409" x2="7.8427" y2="93.133372"/>
        <line x1="7.8427" y1="93.133372" x2="0" y2="93.133372"/>
        <line x1="0" y1="0" x2="5.3012" y2="0"/>
        <line x1="0" y1="0" x2="0" y2="93.133372"/>
    </g>
</svg>
